<svg xmlns="http://www.w3.org/2000/svg" xmlns:xlink="http://www.w3.org/1999/xlink" version="1.1" width="595.28pt" height="300.958pt" viewBox="0 0 595.28 300.958">
<defs>
<clipPath id="clip_0">
<path transform="matrix(1,0,0,-1,0,300.958)" d="M0 300.958H595.28V0H0Z"/>
</clipPath>
</defs>
<g>
<g id="layer_1" data-name="Layer 1">
<g clip-path="url(#clip_0)">
<path transform="matrix(1,0,0,-1,286.521,169.89002)" d="M0 0C0 1.117-1.333 2.121-4.001 3.01-6.211 3.747-8.053 4.115-9.525 4.115-14.885 4.115-19.178 2.184-22.403-1.677-23.699-3.226-24.347-4.496-24.347-5.486-23.813-7.341-21.718-8.268-18.061-8.268-13.336-8.268-9.018-7.087-5.105-4.725-1.702-2.667 0-1.093 0 0M8.726 24.156H-16.65V18.024C-16.549 18.024-16.447 17.973-16.346 17.87-16.244 17.768-16.155 17.717-16.079 17.717-16.282 17.717-16.396 17.729-16.422 17.755-16.422 17.882-14.529 18.289-10.744 18.975-9.348 19.228-7.963 19.355-6.592 19.355-.876 19.355 2.794 17.755 4.42 14.555 5.512 12.421 6.059 8.116 6.059 1.638V-13.03C5.524-12.827 3.506-12.002 0-10.554 0-9.741-.165-9.221-.495-8.992-1.842-9.779-2.947-10.377-3.811-10.782-6.554-12.078-9.741-12.726-13.374-12.726-18.378-12.726-22.239-11.151-24.956-8.001-26.277-6.478-26.937-4.775-26.937-2.896-26.937-.788-25.896 1.308-23.813 3.391-19.774 7.43-14.759 9.449-8.764 9.449-5.131 9.449-2.21 8.611 0 6.935V10.44C-1.118 11.862-2.204 12.814-3.258 13.297-4.312 13.78-5.753 13.996-7.582 13.945-11.672 13.869-15.419 13.119-18.822 11.697-20.347 11.062-21.832 10.49-23.28 9.982V12.81C-22.95 13.089-22.468 13.51-21.832 14.07-21.731 14.198-21.667 14.274-21.642 14.299V24.156H-29.452V28.729H8.726Z" fill="#ff0000"/>
<path transform="matrix(1,0,0,-1,333.8052,145.73381)" d="M0 0H-4.152V-14.479C-5.651-13.59-7.811-12.828-10.63-12.192-13.272-11.583-15.559-11.278-17.488-11.278-22.137-11.278-26.036-12.104-29.186-13.754-30.964-14.695-31.853-15.926-31.853-17.451-31.853-19.483-30.786-20.499-28.652-20.499-27.356-20.499-25.668-20.118-23.585-19.355-22.238-18.874-20.512-18.264-18.402-17.527-17.514-17.222-15.939-17.069-13.678-17.069-9.284-17.069-6.007-18.429-3.848-21.146-2.807-22.442-2.286-23.966-2.286-25.719-2.286-29.757-4.826-32.933-9.906-35.244-12.015-36.209-14.021-36.755-15.926-36.882-14.098-38.711-12.357-39.625-10.706-39.625-10.173-39.625-9.602-39.549-8.991-39.396L-5.144-45.684C-5.931-46.369-7.544-46.712-9.982-46.712-11.964-46.712-13.64-46.039-15.012-44.693-15.749-43.956-16.79-42.419-18.136-40.083-19.279-38.076-20.231-37.06-20.993-37.034-25.693-36.907-29.312-36.057-31.853-34.481-33.453-33.491-34.253-32.133-34.253-30.405-34.253-28.271-32.983-27.205-30.442-27.205-29.503-27.205-27.541-27.935-24.556-29.395-21.571-30.856-19.114-31.586-17.184-31.586-13.322-31.586-9.703-30.672-6.324-28.843-4.674-27.954-3.848-26.862-3.848-25.566-3.848-23.636-5.372-22.67-8.42-22.67-9.36-22.67-12.396-23.356-17.526-24.728-20.55-25.541-22.403-25.947-23.089-25.947-27.128-25.947-30.456-24.042-33.072-20.232-34.343-18.403-34.977-16.435-34.977-14.326-35.003-10.034-32.068-7.138-26.176-5.639-23.763-5.029-21.489-4.725-19.355-4.725-16.917-4.725-13.463-5.322-8.991-6.515V0H-39.32V4.572H0Z" fill="#ff0000"/>
<path transform="matrix(1,0,0,-1,361.9243,169.89002)" d="M0 0C0 1.117-1.333 2.121-4.001 3.01-6.211 3.747-8.053 4.115-9.525 4.115-14.885 4.115-19.178 2.184-22.403-1.677-23.699-3.226-24.347-4.496-24.347-5.486-23.813-7.341-21.718-8.268-18.061-8.268-13.336-8.268-9.018-7.087-5.105-4.725-1.702-2.667 0-1.093 0 0M8.726 24.156H-16.65V18.024C-16.549 18.024-16.447 17.973-16.346 17.87-16.244 17.768-16.155 17.717-16.079 17.717-16.282 17.717-16.396 17.729-16.422 17.755-16.422 17.882-14.529 18.289-10.744 18.975-9.348 19.228-7.963 19.355-6.592 19.355-.876 19.355 2.794 17.755 4.42 14.555 5.512 12.421 6.059 8.116 6.059 1.638V-13.03C5.524-12.827 3.506-12.002 0-10.554 0-9.741-.165-9.221-.495-8.992-1.842-9.779-2.947-10.377-3.811-10.782-6.554-12.078-9.741-12.726-13.374-12.726-18.378-12.726-22.239-11.151-24.956-8.001-26.277-6.478-26.937-4.775-26.937-2.896-26.937-.788-25.896 1.308-23.813 3.391-19.774 7.43-14.759 9.449-8.764 9.449-5.131 9.449-2.21 8.611 0 6.935V10.44C-1.118 11.862-2.204 12.814-3.258 13.297-4.312 13.78-5.753 13.996-7.582 13.945-11.672 13.869-15.419 13.119-18.822 11.697-20.347 11.062-21.832 10.49-23.28 9.982V12.81C-22.95 13.089-22.468 13.51-21.832 14.07-21.731 14.198-21.667 14.274-21.642 14.299V24.156H-29.452V28.729H8.726Z" fill="#ff0000"/>
<path transform="matrix(1,0,0,-1,398.6548,156.0975)" d="M0 0C0 2.032-1.442 3.048-4.325 3.048-6.349 3.048-8.498 2.068-10.774 .107-12.394-1.293-13.873-2.987-15.213-4.973-16.832-7.367-17.642-9.417-17.642-11.123V-27.128L-24.271-24.185V10.364H-29.109V14.936H-24.499C-24.499 22.216-25.82 28.265-28.462 33.084-28.97 34.022-29.948 35.431-31.396 37.308-32.768 39.109-33.72 40.542-34.254 41.607H-26.519C-25.021 40.212-23.471 37.917-21.87 34.721-19.152 29.292-17.794 22.698-17.794 14.936H7.354V10.364H-17.642V.496C-16.143 1.359-13.691 2.489-10.287 3.887-8.891 4.268-7.201 4.458-5.22 4.458-2.502 4.458-.076 3.709 2.058 2.211" fill="#ff0000"/>
<path transform="matrix(1,0,0,-1,381.3325,164.12342)" d="M0 0 2.571 5.227 21.406-15.576 16.584-19.103Z" fill="#ff0000"/>
<path transform="matrix(1,0,0,-1,434.0513,169.89002)" d="M0 0C0 1.117-1.333 2.121-4.001 3.01-6.211 3.747-8.053 4.115-9.525 4.115-14.885 4.115-19.178 2.184-22.403-1.677-23.699-3.226-24.347-4.496-24.347-5.486-23.813-7.341-21.718-8.268-18.061-8.268-13.336-8.268-9.018-7.087-5.105-4.725-1.702-2.667 0-1.093 0 0M6.554 24.156H-16.65V18.024C-16.549 18.024-16.447 17.973-16.346 17.87-16.244 17.768-16.155 17.717-16.079 17.717-16.282 17.717-16.396 17.729-16.422 17.755-16.422 17.882-14.529 18.289-10.744 18.975-9.348 19.228-7.963 19.355-6.592 19.355-.876 19.355 2.794 17.755 4.42 14.555 5.512 12.421 6.059 8.116 6.059 1.638V-13.03C5.524-12.827 3.506-12.002 0-10.554 0-9.741-.165-9.221-.495-8.992-1.842-9.779-2.947-10.377-3.811-10.782-6.554-12.078-9.741-12.726-13.374-12.726-18.378-12.726-22.239-11.151-24.956-8.001-26.277-6.478-26.937-4.775-26.937-2.896-26.937-.788-25.896 1.308-23.813 3.391-19.774 7.43-14.759 9.449-8.764 9.449-5.131 9.449-2.21 8.611 0 6.935V10.44C-1.118 11.862-2.204 12.814-3.258 13.297-4.312 13.78-5.753 13.996-7.582 13.945-11.672 13.869-15.419 13.119-18.822 11.697-20.347 11.062-21.832 10.49-23.28 9.982V12.81C-22.95 13.089-22.468 13.51-21.832 14.07-21.731 14.198-21.667 14.274-21.642 14.299V24.156H-29.452V28.729H6.554Z" fill="#ff0000"/>
<path transform="matrix(1,0,0,-1,471.5503,137.19911)" d="M0 0C-.102-.102-.394-.152-.876-.152-1.282-.152-1.638-.102-1.942 0L-4.419 5.068C-5.436 6.668-6.813 7.754-8.554 8.326-10.294 8.897-11.367 9.526-11.773 10.211-12.154 11.379-12.891 13.17-13.982 15.584V16.46H-12.497C-10.541 15.851-8.953 15.279-7.734 14.746-5.728 13.856-4.386 12.825-3.695 11.659-3.317 11.022-2.73 9.398-1.942 6.782-1.206 4.318-.584 2.604-.076 1.639-.025 1.181 0 .635 0 0" fill="#00ff00"/>
<path transform="matrix(1,0,0,-1,454.1685,136.60192)" d="M0 0V-46.929C-.254-46.853-.585-46.712-.991-46.509L-2.972-45.479C-5.233-44.311-6.427-43.726-6.554-43.726V-.076C-6.554 2.592-7.074 5.426-8.116 8.425-9.563 12.619-11.812 16.431-14.859 19.862L-17.26 22.569H-9.145C-4.929 18.35-2.159 13.178-.838 7.053-.28 4.46 0 2.109 0 0" fill="#ff0000"/>
<path transform="matrix(1,0,0,-1,469.6382,183.41641)" d="M0 0-6.401 3.544V32.958H0ZM4.343 37.683H-11.164V42.254999H4.343Z" fill="#ff0000"/>
<path transform="matrix(1,0,0,-1,258.6372,145.705)" d="M0 0H-12.418V-5.306C-8.986-6.569-6.511-8.224-4.998-10.271-3.432-12.394-2.649-15.262-2.649-18.875-2.649-24.08-4.731-28.552-8.897-32.292-9.681-33-10.879-33.922-12.493-35.058-14.488-36.474-15.749-37.182-16.28-37.182-16.811-37.182-19.246-34.958-23.588-30.509-20.912-30.356-18.122-29.497-15.221-27.929-12.469-26.465-10.135-24.669-8.216-22.546-6.146-20.271-5.11-17.857-5.11-15.304-5.11-12.777-6.511-11.02-9.313-10.034-10.677-9.554-12.027-9.339-13.364-9.39-21.544-9.719-26.554-14.489-28.396-23.702L-36.157-20.521C-36.157-18.4-35.338-16.029-33.696-13.403-33.091-12.444-32.775-11.902-32.75-11.775-32.75-10.589-34.454-9.995-37.862-9.995-42.229-9.995-45.624-11.914-48.047-15.75-49.106-17.442-49.637-19.134-49.637-20.825-49.637-24.358-48.009-27.703-44.752-30.859L-37.56-37.826C-41.951-36.31-46.027-34.114-49.788-31.236-54.812-27.401-57.323-23.285-57.323-18.893-57.323-13.34-54.521-9.2-48.917-6.475-46.469-5.288-43.945-4.695-41.345-4.695-38.014-4.695-34.681-5.692-31.35-7.686-30.088-8.443-29.355-8.847-29.154-8.897-27.235-8.061-25.127-7.162-22.831-6.198-21.618-5.691-20.394-5.348-19.157-5.171V0H-58.46V4.543H0Z" fill="#ff0000"/>
<path transform="matrix(1,0,0,-1,269.7007,214.40271)" d="M0 0C0 0-96.99-.521-122.188 2.909-139.437 5.257-141.45 10.092-128.903 27.558-121.22 38.254-81.821 86.869-81.821 86.869L-83.846 87.794-138.502 25.574C-138.502 25.574-164.564-.337-132.114-4.973-99.664-9.607-40.844-7.482 0 0" fill="#00ff00"/>
<path transform="matrix(1,0,0,-1,263.8706,125.0643)" d="M0 0C0 0-40.514-3.739-78.956 .711-117.398 5.161-79.251 13.012-79.251 13.012-79.251 13.012-60.686 17.442-45.942 17.442-45.942 17.442-60.748 18.943-93.157 12.4-96.392 11.747-121.624 4.915-93.22-.798-64.815-6.51-11.673-1.493 0 0" fill="#00ff00"/>
<path transform="matrix(1,0,0,-1,248.8081,119.796817)" d="M0 0C0 0-23.033-2.125-44.889 .404-66.744 2.934-45.057 7.397-45.057 7.397-45.057 7.397-34.502 9.916-26.12 9.916-26.12 9.916-34.537 10.769-52.962 7.049-54.801 6.678-69.146 2.794-52.998-.454-36.85-3.701-6.637-.849 0 0" fill="#00ff00"/>
<path transform="matrix(1,0,0,-1,234.8892,69.6488)" d="M0 0C-3.012-2.942-3.946-7.088-3.329-11.253-2.711-15.418 .667-16.264 3.734-20.606 5.416-22.986 6.101-26.588 4.658-29.121 3.217-31.654 1.417-33.212-1.061-34.746-3.539-36.28-6.66-38.329-7.809-41.007-8.957-43.686-8.208-47.205-5.388-47.938-8.321-48.472-10.752-45.029-10.316-42.08-9.881-39.13-7.593-36.826-5.278-34.948-2.963-33.069-.41-31.285 .958-28.636 2.326-25.987 1.103-23.039-.692-20.757-3.401-17.311-6.554-14.345-6.357-9.965-6.161-5.586-3.805-1.443 0 0" fill="#00ff00"/>
<path transform="matrix(1,0,0,-1,226.4272,117.29921)" d="M0 0C-2.367 .524-4.323 2.572-4.739 4.961-5.154 7.351-3.743 9.594-1.953 11.231 .337 13.327 3.274 15.77 3.577 19.07 3.879 22.37 1.338 25.969-1.976 25.909 .116 24.812 1.787 22.345 1.243 20.047 .421 16.57-1.015 16.399-2.902 14.799-5.798 12.346-8.861 9.476-8.031 5.773-7.2 2.07-3.303-.669 0 0" fill="#00ff00"/>
<path transform="matrix(1,0,0,-1,277.0874,201.52971)" d="M0 0C-.331-.322-.729-.482-1.192-.482-1.657-.482-2.05-.322-2.372 0-2.694 .322-2.854 .715-2.854 1.18-2.854 1.644-2.694 2.036-2.372 2.358-2.05 2.68-1.652 2.841-1.179 2.841-.951 2.841-.733 2.799-.525 2.713-.317 2.628-.142 2.51 0 2.358 .143 2.206 .261 2.026 .355 1.818 .45 1.61 .497 1.393 .497 1.165 .497 .711 .331 .322 0 0M.526-12.243C.526-12.604 .64-12.939 .867-13.252 1.094-13.564 1.378-13.749 1.719-13.806 1.453-14.108 .999-14.26 .355-14.26-.289-14.26-.762-14.137-1.064-13.891-1.633-13.475-1.917-12.793-1.917-11.846V-11.817L-2.599-10.937-1.889-10.056C-1.87-7.537-1.86-5.946-1.86-5.283-1.86-4.431-2.362-3.91-3.366-3.721-3.29-3.664-3.195-3.607-3.082-3.551-2.911-3.456-2.731-3.38-2.542-3.323-1.538-3.021-.733-3.105-.128-3.579 .1-3.769 .261-4.005 .355-4.289 .394-4.422 .427-4.678 .455-5.056 .483-5.436 .507-5.776 .526-6.079V-6.562-10.084L1.208-10.937 .526-11.817Z" fill="#00ff00"/>
<path transform="matrix(1,0,0,-1,295.1401,213.88611)" d="M0 0C0-.36 .113-.696 .341-1.009 .567-1.321 .852-1.506 1.192-1.562 .908-1.866 .444-2.022-.199-2.031-.844-2.041-1.316-1.923-1.619-1.677-2.188-1.241-2.463-.55-2.443 .397V.597L-3.097 1.42-2.443 2.244C-2.405 4.819-2.387 6.116-2.387 6.136-2.387 6.533-2.443 6.902-2.557 7.243-2.709 7.642-2.937 7.944-3.239 8.152-3.618 8.418-4.054 8.498-4.546 8.394-5.038 8.29-5.483 8.119-5.881 7.883-6.278 7.646-6.639 7.366-6.96 7.045-6.998 7.025-7.026 6.997-7.045 6.959V6.761 6.392 2.244L-6.363 1.42-7.045 .567V0C-7.045-.36-6.928-.696-6.69-1.009-6.454-1.321-6.165-1.506-5.824-1.562-6.108-1.866-6.572-2.022-7.216-2.031-7.86-2.041-8.333-1.923-8.636-1.677-9.204-1.241-9.479-.55-9.46 .397V.567L-10.142 1.42-9.46 2.301C-9.46 2.547-9.456 3.119-9.446 4.02-9.437 4.919-9.432 5.52-9.432 5.823V6.59 7.017C-9.432 7.868-9.934 8.389-10.938 8.579-10.861 8.636-10.762 8.696-10.639 8.764-10.516 8.829-10.379 8.882-10.227 8.92-9.356 9.241-8.599 9.223-7.954 8.862-7.595 8.673-7.349 8.389-7.216 8.011-7.178 7.896-7.149 7.783-7.131 7.67-6.582 8.143-5.976 8.517-5.312 8.792-4.649 9.066-3.996 9.165-3.353 9.09-2.197 8.957-1.326 8.55-.739 7.868-.398 7.433-.181 6.921-.086 6.335-.028 6.126 0 5.87 0 5.567V2.301L.682 1.42 0 .539Z" fill="#00ff00"/>
<path transform="matrix(1,0,0,-1,307.1841,215.307)" d="M0 0C.379 0 .848 .095 1.406 .284 1.965 .474 2.405 .72 2.728 1.022 2.67 1.288 2.642 1.619 2.642 2.018L1.988 2.841 2.642 3.665V7.954C2.509 8.162 2.357 8.361 2.188 8.551 1.335 9.46 .407 9.914-.597 9.914-1.089 9.914-1.468 9.739-1.732 9.389-1.998 9.038-2.141 8.692-2.159 8.352L-2.188 7.812V3.75 3.665L-1.506 2.841-2.017 2.188C-1.732 .729-1.061 0 0 0M5.937 20.567C6.41 20.567 6.827 20.481 7.187 20.312 7.547 20.141 7.812 19.942 7.982 19.715 8.153 19.487 8.281 19.218 8.366 18.905 8.451 18.593 8.498 18.337 8.508 18.139 8.518 17.939 8.522 17.745 8.522 17.556 8.522 17.518 8.513 17.48 8.494 17.442V17.414 17.329C8.438 17.082 8.31 16.879 8.11 16.718 7.911 16.557 7.68 16.477 7.414 16.477 7.111 16.477 6.851 16.585 6.633 16.803 6.415 17.021 6.307 17.281 6.307 17.584 6.307 17.887 6.415 18.147 6.633 18.365 6.851 18.583 7.111 18.692 7.414 18.692 7.49 18.692 7.565 18.683 7.642 18.664 7.547 19.535 7.12 19.971 6.363 19.971 6.061 19.971 5.81 19.886 5.61 19.715 5.412 19.545 5.274 19.326 5.198 19.062 5.123 18.796 5.07 18.555 5.042 18.337 5.014 18.119 5 17.906 5 17.698 5 17.433 5.009 12.765 5.028 3.693L5.71 2.841 5.028 1.988V1.619C5.028 .786 5.529 .266 6.534 .057 6.477 .019 6.382-.038 6.25-.113 5.984-.246 5.686-.346 5.354-.412 5.023-.479 4.691-.497 4.36-.469 4.029-.44 3.726-.336 3.451-.156 3.177 .023 2.973 .266 2.841 .568 2.178 .057 1.401-.27 .512-.412-.379-.554-1.212-.492-1.988-.228-2.538-.019-3.007 .279-3.395 .668-3.783 1.056-4.024 1.506-4.119 2.018L-4.772 2.841-4.176 3.608C-4.176 5.577-4.167 6.761-4.147 7.159-4.053 8.144-3.769 8.93-3.295 9.517-2.746 10.198-1.917 10.539-.81 10.539 .298 10.539 1.297 10.17 2.188 9.432 2.339 9.299 2.49 9.156 2.642 9.005V17.13C2.642 17.225 2.646 17.348 2.656 17.499 2.665 17.65 2.731 17.925 2.854 18.323 2.978 18.721 3.144 19.071 3.353 19.374 3.561 19.677 3.887 19.951 4.332 20.198 4.777 20.443 5.312 20.567 5.937 20.567" fill="#00ff00"/>
<path transform="matrix(1,0,0,-1,321.9126,201.52971)" d="M0 0C-.331-.322-.729-.482-1.192-.482-1.657-.482-2.05-.322-2.372 0-2.694 .322-2.854 .715-2.854 1.18-2.854 1.644-2.694 2.036-2.372 2.358-2.05 2.68-1.652 2.841-1.179 2.841-.951 2.841-.733 2.799-.525 2.713-.317 2.628-.142 2.51 0 2.358 .143 2.206 .261 2.026 .355 1.818 .45 1.61 .497 1.393 .497 1.165 .497 .711 .331 .322 0 0M.526-12.243C.526-12.604 .64-12.939 .867-13.252 1.094-13.564 1.378-13.749 1.719-13.806 1.453-14.108 .999-14.26 .355-14.26-.289-14.26-.762-14.137-1.064-13.891-1.633-13.475-1.917-12.793-1.917-11.846V-11.817L-2.599-10.937-1.889-10.056C-1.87-7.537-1.86-5.946-1.86-5.283-1.86-4.431-2.362-3.91-3.366-3.721-3.29-3.664-3.195-3.607-3.082-3.551-2.911-3.456-2.731-3.38-2.542-3.323-1.538-3.021-.733-3.105-.128-3.579 .1-3.769 .261-4.005 .355-4.289 .394-4.422 .427-4.678 .455-5.056 .483-5.436 .507-5.776 .526-6.079V-6.562-10.084L1.208-10.937 .526-11.817Z" fill="#00ff00"/>
<path transform="matrix(1,0,0,-1,334.938,214.7103)" d="M0 0C.17 .075 .369 .208 .597 .397 .501 .7 .464 1.013 .482 1.335V1.421L-.171 2.244 .482 3.068C.482 3.901 .492 4.621 .511 5.227-.796 5-1.705 4.432-2.216 3.522-2.329 3.295-2.434 3.059-2.528 2.813L-2.074 2.244-2.756 1.392C-2.756 .976-2.661 .592-2.472 .241-2.282-.109-2.008-.312-1.647-.369-1.231-.464-.682-.341 0 0M2.897 .937C2.897 .577 3.011 .241 3.238-.071 3.466-.384 3.759-.568 4.119-.625 3.835-.928 3.37-1.084 2.727-1.094 2.083-1.104 1.609-.984 1.307-.738 1.061-.55 .871-.294 .738 .028 .379-.237-.02-.464-.455-.653-1.004-.919-1.601-1.061-2.244-1.079-2.889-1.099-3.476-.933-4.006-.582-4.536-.232-4.839 .284-4.915 .966-4.953 1.23-4.962 1.496-4.943 1.762L-5.341 2.244-4.687 3.097C-4.062 4.517-2.329 5.303 .511 5.454 .511 6.382 .521 6.94 .54 7.13 .54 7.339 .521 7.552 .482 7.77 .444 7.987 .364 8.233 .241 8.508 .118 8.782-.081 9-.355 9.161-.63 9.322-.976 9.403-1.393 9.403-2.282 9.403-2.784 8.977-2.897 8.125-2.613 8.086-2.377 7.964-2.188 7.755-1.998 7.547-1.903 7.301-1.903 7.017-1.903 6.714-2.013 6.453-2.23 6.235-2.448 6.018-2.709 5.909-3.012 5.909-3.182 5.909-3.343 5.946-3.494 6.022-3.646 6.098-3.773 6.202-3.878 6.335-3.982 6.467-4.053 6.609-4.091 6.761-4.091 6.799-4.101 6.837-4.119 6.875V6.932C-4.101 7.083-4.101 7.276-4.119 7.514-4.139 7.75-4.081 8.016-3.949 8.31-3.816 8.603-3.65 8.872-3.452 9.119-3.253 9.364-2.922 9.573-2.457 9.744-1.993 9.914-1.439 9.999-.796 9.999-.246 9.999 .241 9.938 .667 9.814 1.094 9.691 1.43 9.525 1.676 9.317 1.922 9.109 2.135 8.887 2.315 8.65 2.495 8.413 2.623 8.172 2.698 7.926 2.774 7.68 2.831 7.452 2.869 7.244 2.906 7.035 2.926 6.865 2.926 6.732L2.897 6.562V3.097L3.579 2.244 2.897 1.392Z" fill="#00ff00"/>
<path transform="matrix(1,0,0,-1,355.0786,213.88611)" d="M0 0C0-.36 .113-.696 .341-1.009 .567-1.321 .852-1.506 1.192-1.562 .908-1.866 .444-2.022-.199-2.031-.844-2.041-1.316-1.923-1.619-1.677-2.188-1.241-2.463-.55-2.443 .397V.597L-3.097 1.42-2.443 2.244C-2.405 4.819-2.387 6.116-2.387 6.136-2.387 6.533-2.443 6.902-2.557 7.243-2.709 7.642-2.937 7.944-3.239 8.152-3.618 8.418-4.054 8.498-4.546 8.394-5.038 8.29-5.483 8.119-5.881 7.883-6.278 7.646-6.639 7.366-6.96 7.045-6.998 7.025-7.026 6.997-7.045 6.959V6.761 6.392 2.244L-6.363 1.42-7.045 .567V0C-7.045-.36-6.928-.696-6.69-1.009-6.454-1.321-6.165-1.506-5.824-1.562-6.108-1.866-6.572-2.022-7.216-2.031-7.86-2.041-8.333-1.923-8.636-1.677-9.204-1.241-9.479-.55-9.46 .397V.567L-10.142 1.42-9.46 2.301C-9.46 2.547-9.456 3.119-9.446 4.02-9.437 4.919-9.432 5.52-9.432 5.823V6.59 7.017C-9.432 7.868-9.934 8.389-10.938 8.579-10.861 8.636-10.762 8.696-10.639 8.764-10.516 8.829-10.379 8.882-10.227 8.92-9.356 9.241-8.599 9.223-7.954 8.862-7.595 8.673-7.349 8.389-7.216 8.011-7.178 7.896-7.149 7.783-7.131 7.67-6.582 8.143-5.976 8.517-5.312 8.792-4.649 9.066-3.996 9.165-3.353 9.09-2.197 8.957-1.326 8.55-.739 7.868-.398 7.433-.181 6.921-.086 6.335-.028 6.126 0 5.87 0 5.567V2.301L.682 1.42 0 .539Z" fill="#00ff00"/>
<path transform="matrix(1,0,0,-1,383.7397,212.46622)" d="M0 0C.114-.814-.104-1.524-.653-2.131-1.202-2.774-2.031-3.158-3.139-3.281-4.247-3.404-5.288-3.243-6.264-2.798-7.239-2.354-7.812-1.704-7.982-.853L-8.664 0-8.039 .796V2.841 4.204C-7.982 5.246-7.613 6.098-6.931 6.761-6.496 7.196-5.805 7.5-4.857 7.67-3.399 7.916-2.254 7.812-1.42 7.357-.966 7.111-.615 6.775-.369 6.35-.123 5.923 0 5.454 0 4.943-.019 4.563-.118 4.237-.298 3.963-.479 3.688-.748 3.551-1.107 3.551-1.316 3.551-1.505 3.603-1.676 3.707-1.847 3.812-1.979 3.944-2.073 4.104-2.169 4.266-2.216 4.45-2.216 4.659-2.216 4.962-2.111 5.223-1.903 5.44-1.695 5.657-1.43 5.767-1.107 5.767-1.032 5.767-.956 5.757-.881 5.738-.937 6.212-1.164 6.548-1.562 6.747-1.96 6.945-2.538 7.045-3.295 7.045-3.655 7.045-4.02 6.936-4.389 6.719-4.758 6.501-5.07 6.184-5.326 5.767-5.582 5.35-5.71 4.886-5.71 4.375V.824L-5.057 0-5.652-.767C-5.596-1.24-5.464-1.657-5.255-2.017-4.971-2.49-4.493-2.784-3.82-2.897-3.148-3.011-2.575-2.954-2.102-2.727-1.553-2.5-1.107-2.131-.767-1.619-.426-1.107-.284-.568-.341 0-.359 .208-.322 .341-.227 .397-.151 .416-.095 .359-.057 .228-.038 .171-.019 .095 0 0" fill="#00ff00"/>
<path transform="matrix(1,0,0,-1,400.7847,213.94371)" d="M0 0C.037-.341 .165-.644 .383-.908 .601-1.174 .87-1.335 1.192-1.392 .966-1.657 .577-1.809 .028-1.846-.673-1.902-1.218-1.785-1.605-1.491-1.994-1.197-2.244-.767-2.358-.198-2.528-.388-2.699-.559-2.869-.71-3.438-1.184-4.119-1.515-4.915-1.704-5.71-1.894-6.496-1.87-7.272-1.633-8.05-1.396-8.617-.937-8.977-.255-9.109-.01-9.195 .274-9.232 .597L-9.914 1.478-9.232 2.33C-9.232 4.849-9.224 6.307-9.204 6.705V6.733 7.074C-9.204 7.907-9.706 8.428-10.71 8.637-10.635 8.693-10.539 8.75-10.426 8.807-10.256 8.882-10.075 8.949-9.886 9.006-8.883 9.327-8.078 9.242-7.472 8.75-7.244 8.579-7.084 8.353-6.988 8.068-6.875 7.728-6.818 7.263-6.818 6.676V2.33L-6.137 1.478-6.818 .625V.171C-6.818 .02-6.8-.132-6.762-.283-6.667-.587-6.516-.833-6.307-1.022-6.099-1.212-5.824-1.316-5.483-1.335-4.953-1.335-4.366-1.146-3.722-.767-3.268-.502-2.841-.142-2.443 .312V.568 .654L-3.097 1.478-2.472 2.273V7.415C-2.585 8.059-3.078 8.466-3.949 8.637-3.873 8.674-3.778 8.73-3.665 8.807-3.457 8.901-3.238 8.986-3.012 9.063-2.5 9.232-1.946 9.237-1.35 9.076-.753 8.915-.36 8.579-.171 8.068-.058 7.728 0 7.263 0 6.676V5.768 2.898 2.33L.682 1.478 0 .625V.171Z" fill="#00ff00"/>
<path transform="matrix(1,0,0,-1,410.7974,201.52971)" d="M0 0C-.331-.322-.729-.482-1.192-.482-1.657-.482-2.05-.322-2.372 0-2.694 .322-2.854 .715-2.854 1.18-2.854 1.644-2.694 2.036-2.372 2.358-2.05 2.68-1.652 2.841-1.179 2.841-.951 2.841-.733 2.799-.525 2.713-.317 2.628-.142 2.51 0 2.358 .143 2.206 .261 2.026 .355 1.818 .45 1.61 .497 1.393 .497 1.165 .497 .711 .331 .322 0 0M.526-12.243C.526-12.604 .64-12.939 .867-13.252 1.094-13.564 1.378-13.749 1.719-13.806 1.453-14.108 .999-14.26 .355-14.26-.289-14.26-.762-14.137-1.064-13.891-1.633-13.475-1.917-12.793-1.917-11.846V-11.817L-2.599-10.937-1.889-10.056C-1.87-7.537-1.86-5.946-1.86-5.283-1.86-4.431-2.362-3.91-3.366-3.721-3.29-3.664-3.195-3.607-3.082-3.551-2.911-3.456-2.731-3.38-2.542-3.323-1.538-3.021-.733-3.105-.128-3.579 .1-3.769 .261-4.005 .355-4.289 .394-4.422 .427-4.678 .455-5.056 .483-5.436 .507-5.776 .526-6.079V-6.562-10.084L1.208-10.937 .526-11.817Z" fill="#00ff00"/>
<path transform="matrix(1,0,0,-1,428.4233,211.5853)" d="M0 0 .682-.881 .057-1.676C.038-1.828 .019-1.979 0-2.131-.075-3.115-.474-3.807-1.192-4.204-1.686-4.47-2.291-4.64-3.011-4.716-4.772-4.905-6.249-4.848-7.442-4.545-8.692-4.224-9.317-3.57-9.317-2.585-9.317-2.434-9.36-2.311-9.445-2.216-9.53-2.121-9.611-2.064-9.687-2.046H-9.8C-9.896-2.008-9.942-1.965-9.942-1.918-9.942-1.87-9.924-1.837-9.886-1.818L-9.829-1.79H-7.982C-7.717-1.79-7.527-1.988-7.414-2.387-7.396-2.443-7.376-2.505-7.357-2.571-7.339-2.638-7.319-2.709-7.301-2.784-7.282-2.86-7.272-2.926-7.272-2.982-7.158-3.438-6.931-3.769-6.59-3.978-6.041-4.318-5.293-4.403-4.346-4.232-3.589-4.101-2.964-3.76-2.471-3.21-2.169-2.869-1.979-2.396-1.903-1.79V-1.762L-2.585-.881-2.102-.256C-2.234 .085-2.442 .35-2.727 .54-3.011 .71-3.276 .813-3.522 .853-3.977 .928-4.687 .979-5.652 1.009-6.619 1.037-7.348 1.089-7.84 1.165-8.39 1.24-8.854 1.468-9.232 1.847-9.611 2.225-9.819 2.698-9.857 3.267-9.952 4.517-9.573 5.397-8.721 5.908-7.452 6.666-5.662 6.95-3.352 6.761-2.045 6.666-1.174 6.269-.738 5.567-.53 5.227-.397 4.839-.341 4.403-.322 4.138-.359 3.887-.454 3.65-.549 3.413-.7 3.219-.909 3.068-1.117 2.916-1.354 2.841-1.619 2.841-1.979 2.841-2.282 2.964-2.528 3.21-2.774 3.456-2.897 3.759-2.897 4.119-2.897 4.479-2.774 4.781-2.528 5.028-2.282 5.273-1.979 5.397-1.619 5.397-1.43 5.397-1.25 5.359-1.079 5.283-1.42 5.813-1.932 6.126-2.613 6.221-2.632 6.221-2.67 6.23-2.727 6.249-3.2 6.307-3.612 6.349-3.963 6.377-4.313 6.405-4.786 6.363-5.383 6.249-5.979 6.136-6.43 5.918-6.732 5.596-6.865 5.482-6.97 5.35-7.045 5.198-7.121 5.047-7.168 4.876-7.187 4.687-7.206 4.498-7.215 4.347-7.215 4.232-7.215 4.119-7.206 3.935-7.187 3.679-7.168 3.423-7.158 3.257-7.158 3.182-7.14 2.784-6.96 2.457-6.619 2.201-6.277 1.945-5.899 1.818-5.482 1.818H-2.613C-2.386 1.818-2.159 1.789-1.932 1.732-1.704 1.676-1.486 1.595-1.278 1.491-1.07 1.387-.881 1.264-.71 1.122-.539 .979-.393 .81-.27 .61-.146 .412-.057 .208 0 0" fill="#00ff00"/>
<path transform="matrix(1,0,0,-1,437.897,201.52971)" d="M0 0C-.331-.322-.729-.482-1.192-.482-1.657-.482-2.05-.322-2.372 0-2.694 .322-2.854 .715-2.854 1.18-2.854 1.644-2.694 2.036-2.372 2.358-2.05 2.68-1.652 2.841-1.179 2.841-.951 2.841-.733 2.799-.525 2.713-.317 2.628-.142 2.51 0 2.358 .143 2.206 .261 2.026 .355 1.818 .45 1.61 .497 1.393 .497 1.165 .497 .711 .331 .322 0 0M.526-12.243C.526-12.604 .64-12.939 .867-13.252 1.094-13.564 1.378-13.749 1.719-13.806 1.453-14.108 .999-14.26 .355-14.26-.289-14.26-.762-14.137-1.064-13.891-1.633-13.475-1.917-12.793-1.917-11.846V-11.817L-2.599-10.937-1.889-10.056C-1.87-7.537-1.86-5.946-1.86-5.283-1.86-4.431-2.362-3.91-3.366-3.721-3.29-3.664-3.195-3.607-3.082-3.551-2.911-3.456-2.731-3.38-2.542-3.323-1.538-3.021-.733-3.105-.128-3.579 .1-3.769 .261-4.005 .355-4.289 .394-4.422 .427-4.678 .455-5.056 .483-5.436 .507-5.776 .526-6.079V-6.562-10.084L1.208-10.937 .526-11.817Z" fill="#00ff00"/>
<path transform="matrix(1,0,0,-1,455.9507,213.88611)" d="M0 0C0-.36 .113-.696 .341-1.009 .567-1.321 .852-1.506 1.192-1.562 .908-1.866 .444-2.022-.199-2.031-.844-2.041-1.316-1.923-1.619-1.677-2.188-1.241-2.463-.55-2.443 .397V.597L-3.097 1.42-2.443 2.244C-2.405 4.819-2.387 6.116-2.387 6.136-2.387 6.533-2.443 6.902-2.557 7.243-2.709 7.642-2.937 7.944-3.239 8.152-3.618 8.418-4.054 8.498-4.546 8.394-5.038 8.29-5.483 8.119-5.881 7.883-6.278 7.646-6.639 7.366-6.96 7.045-6.998 7.025-7.026 6.997-7.045 6.959V6.761 6.392 2.244L-6.363 1.42-7.045 .567V0C-7.045-.36-6.928-.696-6.69-1.009-6.454-1.321-6.165-1.506-5.824-1.562-6.108-1.866-6.572-2.022-7.216-2.031-7.86-2.041-8.333-1.923-8.636-1.677-9.204-1.241-9.479-.55-9.46 .397V.567L-10.142 1.42-9.46 2.301C-9.46 2.547-9.456 3.119-9.446 4.02-9.437 4.919-9.432 5.52-9.432 5.823V6.59 7.017C-9.432 7.868-9.934 8.389-10.938 8.579-10.861 8.636-10.762 8.696-10.639 8.764-10.516 8.829-10.379 8.882-10.227 8.92-9.356 9.241-8.599 9.223-7.954 8.862-7.595 8.673-7.349 8.389-7.216 8.011-7.178 7.896-7.149 7.783-7.131 7.67-6.582 8.143-5.976 8.517-5.312 8.792-4.649 9.066-3.996 9.165-3.353 9.09-2.197 8.957-1.326 8.55-.739 7.868-.398 7.433-.181 6.921-.086 6.335-.028 6.126 0 5.87 0 5.567V2.301L.682 1.42 0 .539Z" fill="#00ff00"/>
<path transform="matrix(1,0,0,-1,466.1763,209.19962)" d="M0 0V-1.079C.019-1.079 .223-1.084 .611-1.094 .999-1.104 1.288-1.107 1.478-1.107 1.667-1.107 1.908-1.084 2.202-1.036 2.495-.989 2.708-.918 2.841-.823 3.163-.615 3.39-.284 3.522 .171 3.655 .625 3.717 1.019 3.707 1.35 3.697 1.681 3.665 2.131 3.608 2.699 3.551 3.153 3.338 3.48 2.969 3.679 2.6 3.878 2.188 3.978 1.733 3.978 1.562 3.978 1.393 3.939 1.222 3.863 1.052 3.788 .867 3.674 .668 3.522 .469 3.371 .308 3.125 .185 2.784 .062 2.443 0 2.036 0 1.562ZM4.46-2.272C4.706-2.272 4.915-2.343 5.085-2.485 5.256-2.627 5.379-2.798 5.454-2.997 5.53-3.195 5.568-3.418 5.568-3.664 5.568-4.194 5.464-4.668 5.256-5.085 4.952-5.652 4.398-6.061 3.594-6.306 2.789-6.553 1.97-6.643 1.137-6.576 .303-6.51-.388-6.345-.937-6.079-1.26-5.928-1.515-5.743-1.704-5.524-1.894-5.308-2.026-5.09-2.102-4.871-2.178-4.654-2.234-4.384-2.272-4.062L-2.954-3.21-2.357-2.414C-2.357-2.319-2.354-2.178-2.344-1.988-2.334-1.799-2.329-1.666-2.329-1.591V1.449C-2.329 3.153-1.543 4.176 .028 4.518 .615 4.631 1.217 4.697 1.833 4.716 2.448 4.734 3.102 4.621 3.793 4.375 4.483 4.129 4.99 3.722 5.312 3.153 5.672 2.566 5.776 1.823 5.625 .924 5.474 .023 5.104-.615 4.518-.994 4.081-1.24 3.476-1.411 2.699-1.505 2.643-1.505 2.391-1.52 1.946-1.548 1.501-1.576 .853-1.609 0-1.647V-2.386L.653-3.21 .058-3.948C.133-4.441 .389-4.867 .824-5.227 1.26-5.587 1.79-5.767 2.415-5.767 2.964-5.767 3.466-5.662 3.921-5.454 4.375-5.246 4.631-4.914 4.687-4.46 4.611-4.479 4.536-4.488 4.46-4.488 4.157-4.488 3.896-4.379 3.679-4.161 3.461-3.943 3.353-3.684 3.353-3.38 3.353-3.077 3.461-2.816 3.679-2.599 3.896-2.382 4.157-2.272 4.46-2.272" fill="#00ff00"/>
</g>
<g id="layer_1" data-name="Layer 2">
</g>
</g>
</g>
</svg>
