<svg xmlns="http://www.w3.org/2000/svg" width="120" height="50" viewBox="0 0 120 50">
<g>
<path d="M0 10 Q15 0 30 10 Q45 20 60 10 Q75 0 90 10 Q105 20 120 10" stroke="#c9a84c" fill="none" stroke-width="3.00"/>
<path d="M0 15 Q15 5 30 15 Q45 25 60 15 Q75 5 90 15 Q105 25 120 15" stroke="#c9a84c" fill="none" stroke-width="1.88"/>
<path d="M0 18 Q15 10 30 18 Q45 26 60 18 Q75 10 90 18 Q105 26 120 18" stroke="#c9a84c" fill="none" stroke-width="1.25" stroke-dasharray="1 2"/>
<path d="M30 10 L30 28" stroke="#c9a84c" fill="none" stroke-width="1.88"/>
<circle cx="30" cy="30" r="3" stroke="#c9a84c" fill="none" stroke-width="1.55"/>
<circle cx="30" cy="30" r="1.5" fill="#c9a84c" opacity="0.80" stroke="none"/>
<path d="M30 33 Q32 38 30 42 Q28 38 30 33Z" stroke="#c9a84c" fill="#c9a84c" stroke-width="1.25" opacity="0.80"/>
<path d="M90 10 L90 28" stroke="#c9a84c" fill="none" stroke-width="1.88"/>
<circle cx="90" cy="30" r="3" stroke="#c9a84c" fill="none" stroke-width="1.55"/>
<circle cx="90" cy="30" r="1.5" fill="#c9a84c" opacity="0.80" stroke="none"/>
<path d="M90 33 Q92 38 90 42 Q88 38 90 33Z" stroke="#c9a84c" fill="#c9a84c" stroke-width="1.25" opacity="0.80"/>
<path d="M0 10 L0 22" stroke="#c9a84c" fill="none" stroke-width="1.25"/>
<circle cx="0" cy="24" r="2" stroke="#c9a84c" fill="none" stroke-width="1.25"/>
<path d="M60 10 L60 22" stroke="#c9a84c" fill="none" stroke-width="1.25"/>
<circle cx="60" cy="24" r="2" stroke="#c9a84c" fill="none" stroke-width="1.25"/>
<path d="M120 10 L120 22" stroke="#c9a84c" fill="none" stroke-width="1.25"/>
<circle cx="120" cy="24" r="2" stroke="#c9a84c" fill="none" stroke-width="1.25"/>
<line x1="0" y1="48" x2="120" y2="48" stroke="#c9a84c" stroke-width="0.95" stroke-dasharray="0.5 2"/>
<path d="M15 22 L17 24 L15 26 L13 24Z" stroke="#c9a84c" fill="#c9a84c" opacity="0.73" stroke-width="0.95"/>
<path d="M45 22 L47 24 L45 26 L43 24Z" stroke="#c9a84c" fill="#c9a84c" opacity="0.73" stroke-width="0.95"/>
<path d="M75 22 L77 24 L75 26 L73 24Z" stroke="#c9a84c" fill="#c9a84c" opacity="0.73" stroke-width="0.95"/>
<path d="M105 22 L107 24 L105 26 L103 24Z" stroke="#c9a84c" fill="#c9a84c" opacity="0.73" stroke-width="0.95"/>
</g>
</svg>