<svg xmlns="http://www.w3.org/2000/svg" width="80" height="80" viewBox="0 0 80 80">
<g>
<path d="M40 0 L80 40 L40 80 L0 40Z" stroke="#c9a84c" fill="none" stroke-width="2.20"/>
<path d="M40 10 L70 40 L40 70 L10 40Z" stroke="#c9a84c" fill="none" stroke-width="1.55"/>
<path d="M40 20 L60 40 L40 60 L20 40Z" stroke="#c9a84c" fill="none" stroke-width="1.25"/>
<path d="M40 10 Q43.0 19.0 40 40 Q37.0 19.0 40 10Z" stroke="#c9a84c" fill="#c9a84c" stroke-width="0.95" opacity="0.49"/>
<path d="M70 40 Q64.0 40.0 40 40 Q58.0 40.0 70 40Z" stroke="#c9a84c" fill="#c9a84c" stroke-width="0.95" opacity="0.49"/>
<path d="M40 70 Q43.0 61.0 40 40 Q37.0 61.0 40 70Z" stroke="#c9a84c" fill="#c9a84c" stroke-width="0.95" opacity="0.49"/>
<path d="M10 40 Q22.0 40.0 40 40 Q16.0 40.0 10 40Z" stroke="#c9a84c" fill="#c9a84c" stroke-width="0.95" opacity="0.49"/>
<circle cx="40" cy="40" r="6" stroke="#c9a84c" fill="none" stroke-width="1.25"/>
<circle cx="40" cy="40" r="3" stroke="#c9a84c" fill="#c9a84c" stroke-width="0.00" opacity="0.80" stroke-width="0.00"/>
<circle cx="0" cy="0" r="2" fill="#c9a84c" opacity="0.63" stroke="none"/>
<circle cx="80" cy="0" r="2" fill="#c9a84c" opacity="0.63" stroke="none"/>
<circle cx="0" cy="80" r="2" fill="#c9a84c" opacity="0.63" stroke="none"/>
<circle cx="80" cy="80" r="2" fill="#c9a84c" opacity="0.63" stroke="none"/>
<line x1="40" y1="0" x2="40" y2="80" stroke="#c9a84c" stroke-width="0.50"/>
<line x1="0" y1="40" x2="80" y2="40" stroke="#c9a84c" stroke-width="0.50"/>
</g>
</svg>