<svg xmlns="http://www.w3.org/2000/svg" width="800" height="50" viewBox="0 0 800 50">
<g>
<line x1="30" y1="25" x2="340" y2="25" stroke="#c9a84c" stroke-width="3.00"/>
<line x1="460" y1="25" x2="770" y2="25" stroke="#c9a84c" stroke-width="3.00"/>
<line x1="50" y1="22" x2="330" y2="22" stroke="#c9a84c" stroke-width="1.25" stroke-dasharray="2 3"/>
<line x1="470" y1="22" x2="750" y2="22" stroke="#c9a84c" stroke-width="1.25" stroke-dasharray="2 3"/>
<line x1="50" y1="28" x2="330" y2="28" stroke="#c9a84c" stroke-width="1.25" stroke-dasharray="2 3"/>
<line x1="470" y1="28" x2="750" y2="28" stroke="#c9a84c" stroke-width="1.25" stroke-dasharray="2 3"/>
<circle cx="400" cy="25" r="18" stroke="#c9a84c" fill="none" stroke-width="3.00"/>
<circle cx="400" cy="25" r="14" stroke="#c9a84c" fill="none" stroke-width="1.88" stroke-dasharray="0.8 1.2"/>
<circle cx="400" cy="25" r="10" stroke="#c9a84c" fill="none" stroke-width="1.55"/>
<circle cx="400" cy="25" r="5" stroke="#c9a84c" fill="#c9a84c" stroke-width="0.00" opacity="0.80" stroke-width="0.00"/>
<circle cx="400" cy="25" r="2.5" stroke="#c9a84c" fill="#d4af37" stroke-width="0.00" opacity="0.80" stroke-width="0.00"/>
<path d="M400 7 Q404 16 400 25 Q396 16 400 7Z" stroke="#c9a84c" fill="#c9a84c" stroke-width="1.55" opacity="0.80"/>
<path d="M400 7 Q404 16 400 25 Q396 16 400 7Z" stroke="#c9a84c" fill="#c9a84c" stroke-width="1.55" opacity="0.80" transform="rotate(45 400 25)"/>
<path d="M400 7 Q404 16 400 25 Q396 16 400 7Z" stroke="#c9a84c" fill="#c9a84c" stroke-width="1.55" opacity="0.80" transform="rotate(90 400 25)"/>
<path d="M400 7 Q404 16 400 25 Q396 16 400 7Z" stroke="#c9a84c" fill="#c9a84c" stroke-width="1.55" opacity="0.80" transform="rotate(135 400 25)"/>
<path d="M400 7 Q404 16 400 25 Q396 16 400 7Z" stroke="#c9a84c" fill="#c9a84c" stroke-width="1.55" opacity="0.80" transform="rotate(180 400 25)"/>
<path d="M400 7 Q404 16 400 25 Q396 16 400 7Z" stroke="#c9a84c" fill="#c9a84c" stroke-width="1.55" opacity="0.80" transform="rotate(225 400 25)"/>
<path d="M400 7 Q404 16 400 25 Q396 16 400 7Z" stroke="#c9a84c" fill="#c9a84c" stroke-width="1.55" opacity="0.80" transform="rotate(270 400 25)"/>
<path d="M400 7 Q404 16 400 25 Q396 16 400 7Z" stroke="#c9a84c" fill="#c9a84c" stroke-width="1.55" opacity="0.80" transform="rotate(315 400 25)"/>
<path d="M382 25 Q365 15 345 18 Q330 20 320 25" stroke="#c9a84c" fill="none" stroke-width="1.88"/>
<path d="M418 25 Q435 15 455 18 Q470 20 480 25" stroke="#c9a84c" fill="none" stroke-width="1.88"/>
<path d="M382 25 Q365 35 345 32 Q330 30 320 25" stroke="#c9a84c" fill="none" stroke-width="1.88"/>
<path d="M418 25 Q435 35 455 32 Q470 30 480 25" stroke="#c9a84c" fill="none" stroke-width="1.88"/>
<circle cx="60" cy="25" r="1.5" fill="#c9a84c" opacity="0.80" stroke="none"/>
<circle cx="90" cy="25" r="1.5" fill="#c9a84c" opacity="0.80" stroke="none"/>
<circle cx="120" cy="25" r="1.5" fill="#c9a84c" opacity="0.80" stroke="none"/>
<circle cx="150" cy="25" r="1.5" fill="#c9a84c" opacity="0.80" stroke="none"/>
<circle cx="180" cy="25" r="1.5" fill="#c9a84c" opacity="0.80" stroke="none"/>
<circle cx="210" cy="25" r="1.5" fill="#c9a84c" opacity="0.80" stroke="none"/>
<circle cx="240" cy="25" r="1.5" fill="#c9a84c" opacity="0.80" stroke="none"/>
<circle cx="270" cy="25" r="1.5" fill="#c9a84c" opacity="0.80" stroke="none"/>
<circle cx="300" cy="25" r="1.5" fill="#c9a84c" opacity="0.80" stroke="none"/>
<circle cx="470" cy="25" r="1.5" fill="#c9a84c" opacity="0.80" stroke="none"/>
<circle cx="500" cy="25" r="1.5" fill="#c9a84c" opacity="0.80" stroke="none"/>
<circle cx="530" cy="25" r="1.5" fill="#c9a84c" opacity="0.80" stroke="none"/>
<circle cx="560" cy="25" r="1.5" fill="#c9a84c" opacity="0.80" stroke="none"/>
<circle cx="590" cy="25" r="1.5" fill="#c9a84c" opacity="0.80" stroke="none"/>
<circle cx="620" cy="25" r="1.5" fill="#c9a84c" opacity="0.80" stroke="none"/>
<circle cx="650" cy="25" r="1.5" fill="#c9a84c" opacity="0.80" stroke="none"/>
<circle cx="680" cy="25" r="1.5" fill="#c9a84c" opacity="0.80" stroke="none"/>
<circle cx="710" cy="25" r="1.5" fill="#c9a84c" opacity="0.80" stroke="none"/>
<circle cx="740" cy="25" r="1.5" fill="#c9a84c" opacity="0.80" stroke="none"/>
<path d="M30 20 L35 25 L30 30 L25 25Z" stroke="#c9a84c" fill="#c9a84c" opacity="0.80" stroke-width="1.88"/>
<path d="M770 20 L775 25 L770 30 L765 25Z" stroke="#c9a84c" fill="#c9a84c" opacity="0.80" stroke-width="1.88"/>
<circle cx="340" cy="25" r="3" stroke="#c9a84c" fill="none" stroke-width="1.88"/>
<circle cx="340" cy="25" r="1" fill="#c9a84c" opacity="0.80" stroke="none"/>
<circle cx="460" cy="25" r="3" stroke="#c9a84c" fill="none" stroke-width="1.88"/>
<circle cx="460" cy="25" r="1" fill="#c9a84c" opacity="0.80" stroke="none"/>
</g>
</svg>