<svg xmlns="http://www.w3.org/2000/svg" width="200" height="70" viewBox="0 0 200 70">
<g>
<path d="M0 70 Q10 65 20 55 Q35 30 50 15 Q65 2 80 0 Q90 0 100 5 Q110 0 120 0 Q135 2 150 15 Q165 30 180 55 Q190 65 200 70" stroke="#c9a84c" fill="none" stroke-width="3.00"/>
<path d="M10 70 Q20 62 30 50 Q45 28 60 16 Q72 6 85 5 Q95 5 100 8 Q105 5 115 5 Q128 6 140 16 Q155 28 170 50 Q180 62 190 70" stroke="#c9a84c" fill="none" stroke-width="2.20"/>
<path d="M25 70 Q35 58 45 45 Q58 26 72 18 Q82 12 92 12 Q100 14 100 14 Q100 14 108 12 Q118 12 128 18 Q142 26 155 45 Q165 58 175 70" stroke="#c9a84c" fill="none" stroke-width="1.55"/>
<circle cx="20" cy="52.7" r="2" stroke="#c9a84c" fill="none" stroke-width="1.55"/>
<circle cx="40" cy="37.1" r="2" stroke="#c9a84c" fill="none" stroke-width="1.55"/>
<circle cx="60" cy="24.7" r="2" stroke="#c9a84c" fill="none" stroke-width="1.55"/>
<circle cx="80" cy="16.7" r="2" stroke="#c9a84c" fill="none" stroke-width="1.55"/>
<circle cx="100" cy="14.0" r="2" stroke="#c9a84c" fill="none" stroke-width="1.55"/>
<circle cx="120" cy="16.7" r="2" stroke="#c9a84c" fill="none" stroke-width="1.55"/>
<circle cx="140" cy="24.7" r="2" stroke="#c9a84c" fill="none" stroke-width="1.55"/>
<circle cx="160" cy="37.1" r="2" stroke="#c9a84c" fill="none" stroke-width="1.55"/>
<path d="M100 5 L100 20" stroke="#c9a84c" fill="none" stroke-width="2.50"/>
<circle cx="100" cy="22" r="4" stroke="#c9a84c" fill="none" stroke-width="1.88"/>
<circle cx="100" cy="22" r="2" fill="#c9a84c" opacity="0.80" stroke="none"/>
<path d="M100 26 Q103 32 100 38 Q97 32 100 26Z" stroke="#c9a84c" fill="#c9a84c" stroke-width="1.55" opacity="0.80"/>
<path d="M92 3 Q96 -2 100 0 Q104 -2 108 3" stroke="#c9a84c" fill="none" stroke-width="1.55"/>
<path d="M95 0 Q100 -6 105 0" stroke="#c9a84c" fill="none" stroke-width="1.25"/>
<circle cx="100" cy="-3" r="1.5" fill="#c9a84c" opacity="0.80" stroke="none"/>
<circle cx="50" cy="15" r="2.5" stroke="#c9a84c" fill="none" stroke-width="1.55"/>
<circle cx="50" cy="15" r="1" fill="#c9a84c" opacity="0.80" stroke="none"/>
<circle cx="150" cy="15" r="2.5" stroke="#c9a84c" fill="none" stroke-width="1.55"/>
<circle cx="150" cy="15" r="1" fill="#c9a84c" opacity="0.80" stroke="none"/>
<line x1="0" y1="69" x2="200" y2="69" stroke="#c9a84c" stroke-width="1.25" stroke-dasharray="1 3"/>
<line x1="0" y1="67" x2="200" y2="67" stroke="#c9a84c" stroke-width="0.95" stroke-dasharray="0.5 2"/>
<path d="M30 60 L33 63 L30 66 L27 63Z" stroke="#c9a84c" fill="#c9a84c" opacity="0.73" stroke-width="1.25"/>
<path d="M70 60 L73 63 L70 66 L67 63Z" stroke="#c9a84c" fill="#c9a84c" opacity="0.73" stroke-width="1.25"/>
<path d="M130 60 L133 63 L130 66 L127 63Z" stroke="#c9a84c" fill="#c9a84c" opacity="0.73" stroke-width="1.25"/>
<path d="M170 60 L173 63 L170 66 L167 63Z" stroke="#c9a84c" fill="#c9a84c" opacity="0.73" stroke-width="1.25"/>
</g>
</svg>