<svg xmlns="http://www.w3.org/2000/svg" width="100" height="100" viewBox="0 0 100 100">
<g>
<path d="M50 0 L100 50 L50 100 L0 50Z" stroke="#c9a84c" fill="none" stroke-width="2.50"/>
<path d="M50 12 L88 50 L50 88 L12 50Z" stroke="#c9a84c" fill="none" stroke-width="1.88"/>
<path d="M50 22 L78 50 L50 78 L22 50Z" stroke="#c9a84c" fill="none" stroke-width="1.55"/>
<path d="M50 32 L68 50 L50 68 L32 50Z" stroke="#c9a84c" fill="none" stroke-width="1.25"/>
<line x1="50" y1="0" x2="50" y2="100" stroke="#c9a84c" stroke-width="0.95"/>
<line x1="0" y1="50" x2="100" y2="50" stroke="#c9a84c" stroke-width="0.95"/>
<path d="M50 0 L56 22 L78 22 L60 36 L68 58 L50 44 L32 58 L40 36 L22 22 L44 22Z" stroke="#c9a84c" fill="none" stroke-width="1.25"/>
<path d="M50 0 L56 22 L78 22 L60 36 L68 58 L50 44 L32 58 L40 36 L22 22 L44 22Z" stroke="#c9a84c" fill="none" stroke-width="1.25" transform="rotate(45 50 50)"/>
<circle cx="50" cy="50" r="12" stroke="#c9a84c" fill="none" stroke-width="1.88"/>
<circle cx="50" cy="50" r="8" stroke="#c9a84c" fill="none" stroke-width="1.25" stroke-dasharray="0.5 1"/>
<circle cx="50" cy="50" r="4" stroke="#c9a84c" fill="#c9a84c" stroke-width="0.00" opacity="0.80" stroke-width="0.00"/>
<path d="M50 38 Q53 44 50 50 Q47 44 50 38Z" stroke="#c9a84c" fill="#c9a84c" stroke-width="0.75" opacity="0.73"/>
<path d="M50 38 Q53 44 50 50 Q47 44 50 38Z" stroke="#c9a84c" fill="#c9a84c" stroke-width="0.75" opacity="0.73" transform="rotate(45 50 50)"/>
<path d="M50 38 Q53 44 50 50 Q47 44 50 38Z" stroke="#c9a84c" fill="#c9a84c" stroke-width="0.75" opacity="0.73" transform="rotate(90 50 50)"/>
<path d="M50 38 Q53 44 50 50 Q47 44 50 38Z" stroke="#c9a84c" fill="#c9a84c" stroke-width="0.75" opacity="0.73" transform="rotate(135 50 50)"/>
<path d="M50 38 Q53 44 50 50 Q47 44 50 38Z" stroke="#c9a84c" fill="#c9a84c" stroke-width="0.75" opacity="0.73" transform="rotate(180 50 50)"/>
<path d="M50 38 Q53 44 50 50 Q47 44 50 38Z" stroke="#c9a84c" fill="#c9a84c" stroke-width="0.75" opacity="0.73" transform="rotate(225 50 50)"/>
<path d="M50 38 Q53 44 50 50 Q47 44 50 38Z" stroke="#c9a84c" fill="#c9a84c" stroke-width="0.75" opacity="0.73" transform="rotate(270 50 50)"/>
<path d="M50 38 Q53 44 50 50 Q47 44 50 38Z" stroke="#c9a84c" fill="#c9a84c" stroke-width="0.75" opacity="0.73" transform="rotate(315 50 50)"/>
<circle cx="50" cy="6" r="3" stroke="#c9a84c" fill="none" stroke-width="1.25"/>
<circle cx="50" cy="6" r="1" stroke="#c9a84c" fill="#c9a84c" stroke-width="0.00" opacity="0.80" stroke-width="0.00"/>
<circle cx="94" cy="50" r="3" stroke="#c9a84c" fill="none" stroke-width="1.25"/>
<circle cx="94" cy="50" r="1" stroke="#c9a84c" fill="#c9a84c" stroke-width="0.00" opacity="0.80" stroke-width="0.00"/>
<circle cx="50" cy="94" r="3" stroke="#c9a84c" fill="none" stroke-width="1.25"/>
<circle cx="50" cy="94" r="1" stroke="#c9a84c" fill="#c9a84c" stroke-width="0.00" opacity="0.80" stroke-width="0.00"/>
<circle cx="6" cy="50" r="3" stroke="#c9a84c" fill="none" stroke-width="1.25"/>
<circle cx="6" cy="50" r="1" stroke="#c9a84c" fill="#c9a84c" stroke-width="0.00" opacity="0.80" stroke-width="0.00"/>
<circle cx="28" cy="28" r="1.5" fill="#c9a84c" opacity="0.80" stroke="none"/>
<circle cx="72" cy="28" r="1.5" fill="#c9a84c" opacity="0.80" stroke="none"/>
<circle cx="72" cy="72" r="1.5" fill="#c9a84c" opacity="0.80" stroke="none"/>
<circle cx="28" cy="72" r="1.5" fill="#c9a84c" opacity="0.80" stroke="none"/>
<path d="M50 12 Q56 18 62 12" stroke="#c9a84c" fill="none" stroke-width="0.75"/>
<path d="M50 12 Q44 18 38 12" stroke="#c9a84c" fill="none" stroke-width="0.75"/>
<path d="M88 50 Q82 56 88 62" stroke="#c9a84c" fill="none" stroke-width="0.75"/>
<path d="M88 50 Q82 44 88 38" stroke="#c9a84c" fill="none" stroke-width="0.75"/>
<path d="M50 88 Q56 82 62 88" stroke="#c9a84c" fill="none" stroke-width="0.75"/>
<path d="M50 88 Q44 82 38 88" stroke="#c9a84c" fill="none" stroke-width="0.75"/>
<path d="M12 50 Q18 56 12 62" stroke="#c9a84c" fill="none" stroke-width="0.75"/>
<path d="M12 50 Q18 44 12 38" stroke="#c9a84c" fill="none" stroke-width="0.75"/>
</g>
</svg>