<svg xmlns="http://www.w3.org/2000/svg" width="240" height="240" viewBox="0 0 240 240">
<g>
<circle cx="120" cy="120" r="118" stroke="#c9a84c" fill="none" stroke-width="1.88"/>
<circle cx="120" cy="120" r="115" stroke="#c9a84c" fill="none" stroke-width="1.25" stroke-dasharray="1 2"/>
<circle cx="120" cy="120" r="105" stroke="#c9a84c" fill="none" stroke-width="1.55"/>
<circle cx="120" cy="120" r="102" stroke="#c9a84c" fill="none" stroke-width="0.95" stroke-dasharray="0.5 1.5"/>
<path d="M120 8 Q132 40 135 75 Q136 95 132 108 Q126 116 120 118 Q114 116 108 108 Q104 95 105 75 Q108 40 120 8Z" stroke="#c9a84c" fill="none" stroke-width="2.20"/>
<line x1="120" y1="12" x2="120" y2="115" stroke="#c9a84c" stroke-width="0.75"/>
<path d="M119 30 Q125 60 128 90 Q129 105 126 112" stroke="#c9a84c" fill="none" stroke-width="0.50"/>
<path d="M121 30 Q115 60 112 90 Q111 105 114 112" stroke="#c9a84c" fill="none" stroke-width="0.50"/>
<path d="M120 8 Q132 40 135 75 Q136 95 132 108 Q126 116 120 118 Q114 116 108 108 Q104 95 105 75 Q108 40 120 8Z" stroke="#c9a84c" fill="none" stroke-width="2.20" transform="rotate(30 120 120)"/>
<line x1="120" y1="12" x2="120" y2="115" stroke="#c9a84c" stroke-width="0.75" transform="rotate(30 120 120)"/>
<path d="M119 30 Q125 60 128 90 Q129 105 126 112" stroke="#c9a84c" fill="none" stroke-width="0.50" transform="rotate(30 120 120)"/>
<path d="M121 30 Q115 60 112 90 Q111 105 114 112" stroke="#c9a84c" fill="none" stroke-width="0.50" transform="rotate(30 120 120)"/>
<path d="M120 8 Q132 40 135 75 Q136 95 132 108 Q126 116 120 118 Q114 116 108 108 Q104 95 105 75 Q108 40 120 8Z" stroke="#c9a84c" fill="none" stroke-width="2.20" transform="rotate(60 120 120)"/>
<line x1="120" y1="12" x2="120" y2="115" stroke="#c9a84c" stroke-width="0.75" transform="rotate(60 120 120)"/>
<path d="M119 30 Q125 60 128 90 Q129 105 126 112" stroke="#c9a84c" fill="none" stroke-width="0.50" transform="rotate(60 120 120)"/>
<path d="M121 30 Q115 60 112 90 Q111 105 114 112" stroke="#c9a84c" fill="none" stroke-width="0.50" transform="rotate(60 120 120)"/>
<path d="M120 8 Q132 40 135 75 Q136 95 132 108 Q126 116 120 118 Q114 116 108 108 Q104 95 105 75 Q108 40 120 8Z" stroke="#c9a84c" fill="none" stroke-width="2.20" transform="rotate(90 120 120)"/>
<line x1="120" y1="12" x2="120" y2="115" stroke="#c9a84c" stroke-width="0.75" transform="rotate(90 120 120)"/>
<path d="M119 30 Q125 60 128 90 Q129 105 126 112" stroke="#c9a84c" fill="none" stroke-width="0.50" transform="rotate(90 120 120)"/>
<path d="M121 30 Q115 60 112 90 Q111 105 114 112" stroke="#c9a84c" fill="none" stroke-width="0.50" transform="rotate(90 120 120)"/>
<path d="M120 8 Q132 40 135 75 Q136 95 132 108 Q126 116 120 118 Q114 116 108 108 Q104 95 105 75 Q108 40 120 8Z" stroke="#c9a84c" fill="none" stroke-width="2.20" transform="rotate(120 120 120)"/>
<line x1="120" y1="12" x2="120" y2="115" stroke="#c9a84c" stroke-width="0.75" transform="rotate(120 120 120)"/>
<path d="M119 30 Q125 60 128 90 Q129 105 126 112" stroke="#c9a84c" fill="none" stroke-width="0.50" transform="rotate(120 120 120)"/>
<path d="M121 30 Q115 60 112 90 Q111 105 114 112" stroke="#c9a84c" fill="none" stroke-width="0.50" transform="rotate(120 120 120)"/>
<path d="M120 8 Q132 40 135 75 Q136 95 132 108 Q126 116 120 118 Q114 116 108 108 Q104 95 105 75 Q108 40 120 8Z" stroke="#c9a84c" fill="none" stroke-width="2.20" transform="rotate(150 120 120)"/>
<line x1="120" y1="12" x2="120" y2="115" stroke="#c9a84c" stroke-width="0.75" transform="rotate(150 120 120)"/>
<path d="M119 30 Q125 60 128 90 Q129 105 126 112" stroke="#c9a84c" fill="none" stroke-width="0.50" transform="rotate(150 120 120)"/>
<path d="M121 30 Q115 60 112 90 Q111 105 114 112" stroke="#c9a84c" fill="none" stroke-width="0.50" transform="rotate(150 120 120)"/>
<path d="M120 8 Q132 40 135 75 Q136 95 132 108 Q126 116 120 118 Q114 116 108 108 Q104 95 105 75 Q108 40 120 8Z" stroke="#c9a84c" fill="none" stroke-width="2.20" transform="rotate(180 120 120)"/>
<line x1="120" y1="12" x2="120" y2="115" stroke="#c9a84c" stroke-width="0.75" transform="rotate(180 120 120)"/>
<path d="M119 30 Q125 60 128 90 Q129 105 126 112" stroke="#c9a84c" fill="none" stroke-width="0.50" transform="rotate(180 120 120)"/>
<path d="M121 30 Q115 60 112 90 Q111 105 114 112" stroke="#c9a84c" fill="none" stroke-width="0.50" transform="rotate(180 120 120)"/>
<path d="M120 8 Q132 40 135 75 Q136 95 132 108 Q126 116 120 118 Q114 116 108 108 Q104 95 105 75 Q108 40 120 8Z" stroke="#c9a84c" fill="none" stroke-width="2.20" transform="rotate(210 120 120)"/>
<line x1="120" y1="12" x2="120" y2="115" stroke="#c9a84c" stroke-width="0.75" transform="rotate(210 120 120)"/>
<path d="M119 30 Q125 60 128 90 Q129 105 126 112" stroke="#c9a84c" fill="none" stroke-width="0.50" transform="rotate(210 120 120)"/>
<path d="M121 30 Q115 60 112 90 Q111 105 114 112" stroke="#c9a84c" fill="none" stroke-width="0.50" transform="rotate(210 120 120)"/>
<path d="M120 8 Q132 40 135 75 Q136 95 132 108 Q126 116 120 118 Q114 116 108 108 Q104 95 105 75 Q108 40 120 8Z" stroke="#c9a84c" fill="none" stroke-width="2.20" transform="rotate(240 120 120)"/>
<line x1="120" y1="12" x2="120" y2="115" stroke="#c9a84c" stroke-width="0.75" transform="rotate(240 120 120)"/>
<path d="M119 30 Q125 60 128 90 Q129 105 126 112" stroke="#c9a84c" fill="none" stroke-width="0.50" transform="rotate(240 120 120)"/>
<path d="M121 30 Q115 60 112 90 Q111 105 114 112" stroke="#c9a84c" fill="none" stroke-width="0.50" transform="rotate(240 120 120)"/>
<path d="M120 8 Q132 40 135 75 Q136 95 132 108 Q126 116 120 118 Q114 116 108 108 Q104 95 105 75 Q108 40 120 8Z" stroke="#c9a84c" fill="none" stroke-width="2.20" transform="rotate(270 120 120)"/>
<line x1="120" y1="12" x2="120" y2="115" stroke="#c9a84c" stroke-width="0.75" transform="rotate(270 120 120)"/>
<path d="M119 30 Q125 60 128 90 Q129 105 126 112" stroke="#c9a84c" fill="none" stroke-width="0.50" transform="rotate(270 120 120)"/>
<path d="M121 30 Q115 60 112 90 Q111 105 114 112" stroke="#c9a84c" fill="none" stroke-width="0.50" transform="rotate(270 120 120)"/>
<path d="M120 8 Q132 40 135 75 Q136 95 132 108 Q126 116 120 118 Q114 116 108 108 Q104 95 105 75 Q108 40 120 8Z" stroke="#c9a84c" fill="none" stroke-width="2.20" transform="rotate(300 120 120)"/>
<line x1="120" y1="12" x2="120" y2="115" stroke="#c9a84c" stroke-width="0.75" transform="rotate(300 120 120)"/>
<path d="M119 30 Q125 60 128 90 Q129 105 126 112" stroke="#c9a84c" fill="none" stroke-width="0.50" transform="rotate(300 120 120)"/>
<path d="M121 30 Q115 60 112 90 Q111 105 114 112" stroke="#c9a84c" fill="none" stroke-width="0.50" transform="rotate(300 120 120)"/>
<path d="M120 8 Q132 40 135 75 Q136 95 132 108 Q126 116 120 118 Q114 116 108 108 Q104 95 105 75 Q108 40 120 8Z" stroke="#c9a84c" fill="none" stroke-width="2.20" transform="rotate(330 120 120)"/>
<line x1="120" y1="12" x2="120" y2="115" stroke="#c9a84c" stroke-width="0.75" transform="rotate(330 120 120)"/>
<path d="M119 30 Q125 60 128 90 Q129 105 126 112" stroke="#c9a84c" fill="none" stroke-width="0.50" transform="rotate(330 120 120)"/>
<path d="M121 30 Q115 60 112 90 Q111 105 114 112" stroke="#c9a84c" fill="none" stroke-width="0.50" transform="rotate(330 120 120)"/>
<circle cx="120" cy="10" r="2" fill="#c9a84c" opacity="0.80" stroke="none" transform="rotate(15 120 120)"/>
<circle cx="120" cy="10" r="2" fill="#c9a84c" opacity="0.80" stroke="none" transform="rotate(45 120 120)"/>
<circle cx="120" cy="10" r="2" fill="#c9a84c" opacity="0.80" stroke="none" transform="rotate(75 120 120)"/>
<circle cx="120" cy="10" r="2" fill="#c9a84c" opacity="0.80" stroke="none" transform="rotate(105 120 120)"/>
<circle cx="120" cy="10" r="2" fill="#c9a84c" opacity="0.80" stroke="none" transform="rotate(135 120 120)"/>
<circle cx="120" cy="10" r="2" fill="#c9a84c" opacity="0.80" stroke="none" transform="rotate(165 120 120)"/>
<circle cx="120" cy="10" r="2" fill="#c9a84c" opacity="0.80" stroke="none" transform="rotate(195 120 120)"/>
<circle cx="120" cy="10" r="2" fill="#c9a84c" opacity="0.80" stroke="none" transform="rotate(225 120 120)"/>
<circle cx="120" cy="10" r="2" fill="#c9a84c" opacity="0.80" stroke="none" transform="rotate(255 120 120)"/>
<circle cx="120" cy="10" r="2" fill="#c9a84c" opacity="0.80" stroke="none" transform="rotate(285 120 120)"/>
<circle cx="120" cy="10" r="2" fill="#c9a84c" opacity="0.80" stroke="none" transform="rotate(315 120 120)"/>
<circle cx="120" cy="10" r="2" fill="#c9a84c" opacity="0.80" stroke="none" transform="rotate(345 120 120)"/>
<path d="M120 30 Q129 55 131 80 Q132 98 128 108 Q124 114 120 115 Q116 114 112 108 Q108 98 109 80 Q111 55 120 30Z" stroke="#c9a84c" fill="none" stroke-width="1.55"/>
<path d="M120 30 Q129 55 131 80 Q132 98 128 108 Q124 114 120 115 Q116 114 112 108 Q108 98 109 80 Q111 55 120 30Z" stroke="#c9a84c" fill="none" stroke-width="1.55" transform="rotate(22.5 120 120)"/>
<path d="M120 30 Q129 55 131 80 Q132 98 128 108 Q124 114 120 115 Q116 114 112 108 Q108 98 109 80 Q111 55 120 30Z" stroke="#c9a84c" fill="none" stroke-width="1.55" transform="rotate(45.0 120 120)"/>
<path d="M120 30 Q129 55 131 80 Q132 98 128 108 Q124 114 120 115 Q116 114 112 108 Q108 98 109 80 Q111 55 120 30Z" stroke="#c9a84c" fill="none" stroke-width="1.55" transform="rotate(67.5 120 120)"/>
<path d="M120 30 Q129 55 131 80 Q132 98 128 108 Q124 114 120 115 Q116 114 112 108 Q108 98 109 80 Q111 55 120 30Z" stroke="#c9a84c" fill="none" stroke-width="1.55" transform="rotate(90.0 120 120)"/>
<path d="M120 30 Q129 55 131 80 Q132 98 128 108 Q124 114 120 115 Q116 114 112 108 Q108 98 109 80 Q111 55 120 30Z" stroke="#c9a84c" fill="none" stroke-width="1.55" transform="rotate(112.5 120 120)"/>
<path d="M120 30 Q129 55 131 80 Q132 98 128 108 Q124 114 120 115 Q116 114 112 108 Q108 98 109 80 Q111 55 120 30Z" stroke="#c9a84c" fill="none" stroke-width="1.55" transform="rotate(135.0 120 120)"/>
<path d="M120 30 Q129 55 131 80 Q132 98 128 108 Q124 114 120 115 Q116 114 112 108 Q108 98 109 80 Q111 55 120 30Z" stroke="#c9a84c" fill="none" stroke-width="1.55" transform="rotate(157.5 120 120)"/>
<path d="M120 30 Q129 55 131 80 Q132 98 128 108 Q124 114 120 115 Q116 114 112 108 Q108 98 109 80 Q111 55 120 30Z" stroke="#c9a84c" fill="none" stroke-width="1.55" transform="rotate(180.0 120 120)"/>
<path d="M120 30 Q129 55 131 80 Q132 98 128 108 Q124 114 120 115 Q116 114 112 108 Q108 98 109 80 Q111 55 120 30Z" stroke="#c9a84c" fill="none" stroke-width="1.55" transform="rotate(202.5 120 120)"/>
<path d="M120 30 Q129 55 131 80 Q132 98 128 108 Q124 114 120 115 Q116 114 112 108 Q108 98 109 80 Q111 55 120 30Z" stroke="#c9a84c" fill="none" stroke-width="1.55" transform="rotate(225.0 120 120)"/>
<path d="M120 30 Q129 55 131 80 Q132 98 128 108 Q124 114 120 115 Q116 114 112 108 Q108 98 109 80 Q111 55 120 30Z" stroke="#c9a84c" fill="none" stroke-width="1.55" transform="rotate(247.5 120 120)"/>
<path d="M120 30 Q129 55 131 80 Q132 98 128 108 Q124 114 120 115 Q116 114 112 108 Q108 98 109 80 Q111 55 120 30Z" stroke="#c9a84c" fill="none" stroke-width="1.55" transform="rotate(270.0 120 120)"/>
<path d="M120 30 Q129 55 131 80 Q132 98 128 108 Q124 114 120 115 Q116 114 112 108 Q108 98 109 80 Q111 55 120 30Z" stroke="#c9a84c" fill="none" stroke-width="1.55" transform="rotate(292.5 120 120)"/>
<path d="M120 30 Q129 55 131 80 Q132 98 128 108 Q124 114 120 115 Q116 114 112 108 Q108 98 109 80 Q111 55 120 30Z" stroke="#c9a84c" fill="none" stroke-width="1.55" transform="rotate(315.0 120 120)"/>
<path d="M120 30 Q129 55 131 80 Q132 98 128 108 Q124 114 120 115 Q116 114 112 108 Q108 98 109 80 Q111 55 120 30Z" stroke="#c9a84c" fill="none" stroke-width="1.55" transform="rotate(337.5 120 120)"/>
<path d="M120 55 Q127 75 128 95 Q128 105 125 110 Q122 113 120 114 Q118 113 115 110 Q112 105 112 95 Q113 75 120 55Z" stroke="#c9a84c" fill="#c9a84c" stroke-width="1.25" opacity="0.49"/>
<path d="M120 55 Q127 75 128 95 Q128 105 125 110 Q122 113 120 114 Q118 113 115 110 Q112 105 112 95 Q113 75 120 55Z" stroke="#c9a84c" fill="#c9a84c" stroke-width="1.25" opacity="0.49" transform="rotate(45 120 120)"/>
<path d="M120 55 Q127 75 128 95 Q128 105 125 110 Q122 113 120 114 Q118 113 115 110 Q112 105 112 95 Q113 75 120 55Z" stroke="#c9a84c" fill="#c9a84c" stroke-width="1.25" opacity="0.49" transform="rotate(90 120 120)"/>
<path d="M120 55 Q127 75 128 95 Q128 105 125 110 Q122 113 120 114 Q118 113 115 110 Q112 105 112 95 Q113 75 120 55Z" stroke="#c9a84c" fill="#c9a84c" stroke-width="1.25" opacity="0.49" transform="rotate(135 120 120)"/>
<path d="M120 55 Q127 75 128 95 Q128 105 125 110 Q122 113 120 114 Q118 113 115 110 Q112 105 112 95 Q113 75 120 55Z" stroke="#c9a84c" fill="#c9a84c" stroke-width="1.25" opacity="0.49" transform="rotate(180 120 120)"/>
<path d="M120 55 Q127 75 128 95 Q128 105 125 110 Q122 113 120 114 Q118 113 115 110 Q112 105 112 95 Q113 75 120 55Z" stroke="#c9a84c" fill="#c9a84c" stroke-width="1.25" opacity="0.49" transform="rotate(225 120 120)"/>
<path d="M120 55 Q127 75 128 95 Q128 105 125 110 Q122 113 120 114 Q118 113 115 110 Q112 105 112 95 Q113 75 120 55Z" stroke="#c9a84c" fill="#c9a84c" stroke-width="1.25" opacity="0.49" transform="rotate(270 120 120)"/>
<path d="M120 55 Q127 75 128 95 Q128 105 125 110 Q122 113 120 114 Q118 113 115 110 Q112 105 112 95 Q113 75 120 55Z" stroke="#c9a84c" fill="#c9a84c" stroke-width="1.25" opacity="0.49" transform="rotate(315 120 120)"/>
<circle cx="120" cy="120" r="85" stroke="#c9a84c" fill="none" stroke-width="1.25" stroke-dasharray="0.5 1"/>
<circle cx="120" cy="120" r="70" stroke="#c9a84c" fill="none" stroke-width="1.55"/>
<circle cx="120" cy="120" r="55" stroke="#c9a84c" fill="none" stroke-width="1.25" stroke-dasharray="0.4 0.8"/>
<circle cx="120" cy="120" r="40" stroke="#c9a84c" fill="none" stroke-width="1.25"/>
<circle cx="120" cy="120" r="28" stroke="#c9a84c" fill="none" stroke-width="0.95" stroke-dasharray="0.3 0.5"/>
<circle cx="120" cy="120" r="18" stroke="#c9a84c" fill="none" stroke-width="1.55"/>
<circle cx="120" cy="120" r="12" stroke="#c9a84c" fill="none" stroke-width="1.25"/>
<circle cx="120" cy="120" r="7" stroke="#c9a84c" fill="#c9a84c" stroke-width="0.00" opacity="0.80" stroke-width="0.00"/>
<circle cx="120" cy="120" r="3" stroke="#c9a84c" fill="#d4af37" stroke-width="0.00" opacity="0.80" stroke-width="0.00"/>
<path d="M120 104 Q124 112 120 120 Q116 112 120 104Z" stroke="#c9a84c" fill="#c9a84c" stroke-width="0.95" opacity="0.80"/>
<path d="M120 104 Q124 112 120 120 Q116 112 120 104Z" stroke="#c9a84c" fill="#c9a84c" stroke-width="0.95" opacity="0.80" transform="rotate(45 120 120)"/>
<path d="M120 104 Q124 112 120 120 Q116 112 120 104Z" stroke="#c9a84c" fill="#c9a84c" stroke-width="0.95" opacity="0.80" transform="rotate(90 120 120)"/>
<path d="M120 104 Q124 112 120 120 Q116 112 120 104Z" stroke="#c9a84c" fill="#c9a84c" stroke-width="0.95" opacity="0.80" transform="rotate(135 120 120)"/>
<path d="M120 104 Q124 112 120 120 Q116 112 120 104Z" stroke="#c9a84c" fill="#c9a84c" stroke-width="0.95" opacity="0.80" transform="rotate(180 120 120)"/>
<path d="M120 104 Q124 112 120 120 Q116 112 120 104Z" stroke="#c9a84c" fill="#c9a84c" stroke-width="0.95" opacity="0.80" transform="rotate(225 120 120)"/>
<path d="M120 104 Q124 112 120 120 Q116 112 120 104Z" stroke="#c9a84c" fill="#c9a84c" stroke-width="0.95" opacity="0.80" transform="rotate(270 120 120)"/>
<path d="M120 104 Q124 112 120 120 Q116 112 120 104Z" stroke="#c9a84c" fill="#c9a84c" stroke-width="0.95" opacity="0.80" transform="rotate(315 120 120)"/>
<circle cx="12" cy="12" r="4" stroke="#c9a84c" fill="none" stroke-width="1.25"/>
<circle cx="12" cy="12" r="1.5" fill="#c9a84c" opacity="0.80" stroke="none"/>
<circle cx="228" cy="12" r="4" stroke="#c9a84c" fill="none" stroke-width="1.25"/>
<circle cx="228" cy="12" r="1.5" fill="#c9a84c" opacity="0.80" stroke="none"/>
<circle cx="12" cy="228" r="4" stroke="#c9a84c" fill="none" stroke-width="1.25"/>
<circle cx="12" cy="228" r="1.5" fill="#c9a84c" opacity="0.80" stroke="none"/>
<circle cx="228" cy="228" r="4" stroke="#c9a84c" fill="none" stroke-width="1.25"/>
<circle cx="228" cy="228" r="1.5" fill="#c9a84c" opacity="0.80" stroke="none"/>
</g>
</svg>